<?xml version="1.0"?>
<svg xmlns="http://www.w3.org/2000/svg" xmlns:xlink="http://www.w3.org/1999/xlink" xmlns:svgjs="http://svgjs.com/svgjs" version="1.1" width="512" height="512" x="0" y="0" viewBox="0 0 433.501 433.501" style="enable-background:new 0 0 512 512" xml:space="preserve" class=""><g>
<g xmlns="http://www.w3.org/2000/svg">
	<path d="M255.879,211.621h-11.763v-26.598c0-27.911-22.707-50.617-50.617-50.617s-50.617,22.707-50.617,50.617v26.598h-11.761   c-4.142,0-7.5,3.358-7.5,7.5v110.575c0,4.142,3.358,7.5,7.5,7.5h124.758c4.142,0,7.5-3.358,7.5-7.5V219.121   C263.379,214.979,260.021,211.621,255.879,211.621z M157.882,185.024c0-19.639,15.978-35.617,35.617-35.617   s35.617,15.978,35.617,35.617v26.598h-71.234V185.024z M248.379,322.197H138.621v-95.575h109.758V322.197z" fill="#ff7c1f" data-original="#000000" style=""/>
	<path d="M186,284.143v18.22c0,4.142,3.358,7.5,7.5,7.5s7.5-3.358,7.5-7.5v-18.22c9.063-3.122,15.596-11.729,15.596-21.839   c0-12.735-10.361-23.096-23.096-23.096s-23.095,10.361-23.095,23.096C170.405,272.414,176.937,281.022,186,284.143z M193.5,254.209   c4.464,0,8.096,3.632,8.096,8.096s-3.632,8.096-8.096,8.096s-8.095-3.632-8.095-8.096S189.036,254.209,193.5,254.209z" fill="#ff7c1f" data-original="#000000" style=""/>
	<path d="M429.073,148.087c-3.927-4.98-9.817-7.836-16.159-7.836H387v-26.969c0-10.494-8.538-19.031-19.031-19.031H186.86   c-1.245,0-2.362-0.787-2.782-1.959l-7.784-21.783c-2.619-7.332-9.61-12.257-17.396-12.257H68.102   c-7.785,0-14.776,4.926-17.396,12.257l-7.785,21.784c-0.419,1.172-1.537,1.959-2.781,1.959H19.031C8.538,94.25,0,102.788,0,113.282   v242.938c0,10.494,8.538,19.031,19.031,19.031h348.938c10.115,0,18.388-7.938,18.974-17.908l45.982-191.713   C434.404,159.461,433,153.067,429.073,148.087z M372,356.219c0,2.223-1.809,4.031-4.031,4.031H19.031   c-2.223,0-4.031-1.809-4.031-4.031V113.282c0-2.223,1.809-4.031,4.031-4.031h21.109c7.566,0,14.36-4.787,16.906-11.912   l7.785-21.784c0.493-1.378,1.807-2.304,3.271-2.304h90.796c1.464,0,2.778,0.926,3.271,2.305l7.784,21.784v0   c2.547,7.125,9.341,11.911,16.907,11.911h181.109c2.223,0,4.031,1.809,4.031,4.031V356.219z M418.339,162.131L387,292.793V155.25   h25.914c2.354,0,3.755,1.331,4.381,2.125C417.92,158.168,418.888,159.841,418.339,162.131z" fill="#ff7c1f" data-original="#000000" style=""/>
</g>
<g xmlns="http://www.w3.org/2000/svg">
</g>
<g xmlns="http://www.w3.org/2000/svg">
</g>
<g xmlns="http://www.w3.org/2000/svg">
</g>
<g xmlns="http://www.w3.org/2000/svg">
</g>
<g xmlns="http://www.w3.org/2000/svg">
</g>
<g xmlns="http://www.w3.org/2000/svg">
</g>
<g xmlns="http://www.w3.org/2000/svg">
</g>
<g xmlns="http://www.w3.org/2000/svg">
</g>
<g xmlns="http://www.w3.org/2000/svg">
</g>
<g xmlns="http://www.w3.org/2000/svg">
</g>
<g xmlns="http://www.w3.org/2000/svg">
</g>
<g xmlns="http://www.w3.org/2000/svg">
</g>
<g xmlns="http://www.w3.org/2000/svg">
</g>
<g xmlns="http://www.w3.org/2000/svg">
</g>
<g xmlns="http://www.w3.org/2000/svg">
</g>
</g></svg>
