<?xml version="1.0"?>
<svg xmlns="http://www.w3.org/2000/svg" xmlns:xlink="http://www.w3.org/1999/xlink" xmlns:svgjs="http://svgjs.com/svgjs" version="1.1" width="512" height="512" x="0" y="0" viewBox="0 0 421.163 421.163" style="enable-background:new 0 0 512 512" xml:space="preserve" class=""><g>
<g xmlns="http://www.w3.org/2000/svg">
	<g>
		<g>
			<path d="M261.548,131.161c-79.953,0-144.999,65.047-144.999,145c0,30.914,9.73,59.596,26.281,83.154     c-26.084-2.333-48.082-9.029-65.455-19.979c-19.626-12.369-31.68-31.823-33.071-53.374c-2.409-37.276,22.572-71.647,37.678-88.82     c11.938-13.57,25.176-26.134,39.342-37.341c11.896-9.411,24.429-17.749,39.586-27.373c0.63-0.399,0.87-1.202,0.563-1.882     c-0.306-0.68-1.062-1.03-1.783-0.826c-32.111,9.262-61.857,24.775-86.022,44.863c-26.783,22.264-45.706,49.659-54.722,79.221     c-7.021,23.024-5.449,47.989,4.314,68.494c13.866,29.121,43.481,49.946,81.253,57.135c11.328,2.156,23.075,3.25,34.915,3.25     c7.465,0,14.97-0.436,22.484-1.273c26,24.627,61.083,39.754,99.636,39.754c79.953,0,145-65.047,145-145     C406.548,196.208,341.501,131.161,261.548,131.161z M371.604,238.593c-5.604-3.66-12.105-7.02-19.479-10.014     c-7.227-2.936-15.133-5.478-23.562-7.604c-3.058-13.402-7.244-25.804-12.465-36.691c-2.601-5.427-5.41-10.381-8.412-14.854     C337.569,182.396,360.981,207.554,371.604,238.593z M333.376,251.388c2.859,0.951,5.613,1.964,8.254,3.037     c18.408,7.478,26.648,16.306,26.648,21.736s-8.24,14.26-26.648,21.735c-2.641,1.071-5.395,2.086-8.254,3.036     c0.763-8.092,1.152-16.379,1.152-24.771C334.528,267.765,334.138,259.479,333.376,251.388z M234.317,197.375     c8.022-16.746,18.202-26.744,27.229-26.744c9.027,0,19.205,9.998,27.23,26.744c2.606,5.44,4.904,11.377,6.881,17.711     c-10.996-1.246-22.445-1.889-34.111-1.889c-11.664,0-23.113,0.643-34.109,1.889C229.413,208.752,231.71,202.815,234.317,197.375z      M151.49,313.729c5.602,3.66,12.104,7.021,19.478,10.016c7.226,2.934,15.133,5.476,23.563,7.604     c3.057,13.404,7.244,25.805,12.464,36.693c2.6,5.426,5.413,10.381,8.413,14.854C185.525,369.925,162.115,344.769,151.49,313.729z      M189.719,300.935c-2.857-0.95-5.612-1.965-8.253-3.036c-18.407-7.478-26.647-16.306-26.647-21.735     c0-5.432,8.24-14.261,26.647-21.736c2.641-1.072,5.396-2.086,8.253-3.037c-0.76,8.093-1.15,16.377-1.15,24.773     C188.567,284.556,188.958,292.843,189.719,300.935z M206.994,184.282c-5.22,10.889-9.407,23.29-12.464,36.691     c-8.43,2.129-16.337,4.671-23.563,7.604c-7.373,2.994-13.876,6.354-19.478,10.014c10.624-31.039,34.035-56.195,63.917-69.163     C212.405,173.9,209.594,178.854,206.994,184.282z M288.776,354.946c-8.023,16.746-18.203,26.741-27.229,26.741     s-19.205-9.995-27.229-26.741c-2.608-5.441-4.905-11.379-6.882-17.712c10.996,1.246,22.444,1.891,34.11,1.891     c11.664,0,23.115-0.645,34.111-1.891C293.683,343.567,291.386,349.505,288.776,354.946z M302.038,308.27     c-12.715,1.941-26.383,2.959-40.49,2.959c-14.106,0-27.774-1.018-40.489-2.959c-1.441-10.255-2.189-21.043-2.189-32.107     c0-11.065,0.748-21.855,2.189-32.109c12.715-1.94,26.383-2.959,40.489-2.959c14.107,0,27.775,1.019,40.49,2.959     c1.441,10.254,2.189,21.044,2.189,32.109C304.228,287.227,303.479,298.016,302.038,308.27z M307.688,382.894     c3-4.473,5.812-9.428,8.412-14.854c5.221-10.891,9.405-23.289,12.465-36.693c8.43-2.128,16.336-4.67,23.562-7.604     c7.371-2.995,13.875-6.354,19.479-10.016C360.981,344.769,337.569,369.925,307.688,382.894z" fill="#067eed" data-original="#000000" style="" class=""/>
			<path d="M173.966,115.304l-6.301,4.104c-0.006,0.004-0.015,0.007-0.019,0.013c-2.429,1.594-3.228,4.786-1.834,7.336     c1.399,2.559,4.529,3.609,7.187,2.41l74.926-33.748l-12.079,25.17c-0.876,1.828-0.428,4.02,1.101,5.354     c1.526,1.336,3.754,1.488,5.45,0.375l14.403-9.463c0.411-0.271,0.776-0.608,1.081-1l40.242-51.683l52.642-34.71     C370.662,15.95,367.33,7.474,365.834,5.198c-1.157-1.767-3.58-4.043-8.524-4.871c-5.019-0.843-11.599-0.062-20.117,2.388     c-2.844,0.818-4.447,0.938-6.146,1.063c-5.969,0.446-9.967,1.261-28.946,13.729l-103.82,68.211l-44.783-17.716     c-1.689-0.669-3.596-0.472-5.115,0.525l-6.784,4.456c-1.396,0.917-2.308,2.413-2.483,4.075c-0.176,1.66,0.402,3.314,1.574,4.504     L173.966,115.304z" fill="#067eed" data-original="#000000" style="" class=""/>
		</g>
	</g>
</g>
<g xmlns="http://www.w3.org/2000/svg">
</g>
<g xmlns="http://www.w3.org/2000/svg">
</g>
<g xmlns="http://www.w3.org/2000/svg">
</g>
<g xmlns="http://www.w3.org/2000/svg">
</g>
<g xmlns="http://www.w3.org/2000/svg">
</g>
<g xmlns="http://www.w3.org/2000/svg">
</g>
<g xmlns="http://www.w3.org/2000/svg">
</g>
<g xmlns="http://www.w3.org/2000/svg">
</g>
<g xmlns="http://www.w3.org/2000/svg">
</g>
<g xmlns="http://www.w3.org/2000/svg">
</g>
<g xmlns="http://www.w3.org/2000/svg">
</g>
<g xmlns="http://www.w3.org/2000/svg">
</g>
<g xmlns="http://www.w3.org/2000/svg">
</g>
<g xmlns="http://www.w3.org/2000/svg">
</g>
<g xmlns="http://www.w3.org/2000/svg">
</g>
</g></svg>
