<?xml version="1.0"?>
<svg xmlns="http://www.w3.org/2000/svg" xmlns:xlink="http://www.w3.org/1999/xlink" xmlns:svgjs="http://svgjs.com/svgjs" version="1.1" width="512" height="512" x="0" y="0" viewBox="0 0 512 512" style="enable-background:new 0 0 512 512" xml:space="preserve" class=""><g>
<g xmlns="http://www.w3.org/2000/svg">
	<g>
		<path d="M509.421,196.955l-94.575-82.038c-2.213-1.919-5.341-2.369-8.006-1.155c-2.665,1.217-4.374,3.875-4.374,6.804v42.715    l-37.826,0.012l-0.171-0.004c-25.662-0.568-50.379,5.557-72.148,17.576V109.06h46.818c2.947,0,5.618-1.73,6.824-4.419    c1.206-2.689,0.721-5.835-1.24-8.035L261.591,3.278c-1.419-1.594-3.451-2.505-5.586-2.505s-4.165,0.911-5.586,2.505l-83.132,93.33    c-1.96,2.2-2.445,5.346-1.24,8.035c1.206,2.689,3.878,4.419,6.824,4.419h46.818v32.93c0,4.131,3.349,7.479,7.479,7.479    s7.479-3.349,7.479-7.479v-40.409c0-4.131-3.349-7.479-7.479-7.479h-37.62l66.454-74.606l66.454,74.606h-37.618    c-4.131,0-7.479,3.349-7.479,7.479v88.82c-5.25,3.83-10.277,8.036-15.031,12.621c-11.451,11.042-20.731,23.537-27.678,37.134    v-68.249c0-4.131-3.349-7.479-7.479-7.479c-4.131,0-7.479,3.349-7.479,7.479v104.998c-21.761-12.025-46.465-18.154-72.138-17.577    l-0.181,0.004l-37.841-0.012v-42.715c0-2.929-1.709-5.589-4.374-6.804c-2.666-1.216-5.794-0.765-8.006,1.155L2.579,292.995    C0.94,294.415,0,296.476,0,298.644s0.94,4.229,2.579,5.649l29.129,25.267c3.121,2.708,7.844,2.371,10.551-0.749    c2.706-3.12,2.371-7.844-0.749-10.551l-22.616-19.618l75.682-65.649v33.803c0,4.13,3.347,7.478,7.477,7.479l45.407,0.015    c0.048,0,0.095,0,0.143-0.001l0.257-0.006c34.399-0.75,66.872,11.867,91.427,35.547c24.289,23.422,37.774,54.686,38.062,88.139    v17.728c0,4.131,3.349,7.479,7.479,7.479c0.002,0,0.004,0,0.007,0c0.002,0,0.005,0,0.007,0c4.131,0,7.479-3.349,7.479-7.479    v-16.636c0-0.365-0.011-0.728-0.014-1.093v-94.946c0-18.415,7.356-35.649,20.712-48.53c13.351-12.875,30.985-19.763,49.698-19.355    c0.053,0.001,0.106,0.009,0.16,0.001l39.589-0.015v49.518c0,2.929,1.709,5.588,4.374,6.804c2.665,1.216,5.793,0.764,8.006-1.155    l94.575-82.038c1.638-1.42,2.579-3.482,2.579-5.649S511.06,198.375,509.421,196.955z M417.425,268.254v-40.611    c0-1.984-0.789-3.886-2.192-5.289c-1.402-1.402-3.305-2.19-5.287-2.19c-0.001,0-0.002,0-0.003,0l-46.992,0.018    c-22.653-0.436-44.095,7.904-60.316,23.545c-16.307,15.725-25.287,36.783-25.287,59.297v33.298    c-6.962-13.658-16.249-26.236-27.678-37.258c-4.453-4.294-9.141-8.257-14.029-11.891c3.553-28.059,16.325-53.374,37.073-73.382    c24.555-23.68,57.016-36.326,91.507-35.544c0.013,0,0.119,0.003,0.131,0.003c0.063,0.002,0.132,0.008,0.19,0.003l45.407-0.015    c4.13-0.001,7.477-3.35,7.477-7.479v-33.803l75.681,65.649L417.425,268.254z" fill="#ff7c1f" data-original="#000000" style=""/>
	</g>
</g>
<g xmlns="http://www.w3.org/2000/svg">
	<g>
		<path d="M284.841,438.136c-4.131,0-7.479,3.349-7.479,7.479v50.652h-42.711v-97.205c0-22.514-8.98-43.572-25.287-59.297    c-16.219-15.64-37.661-24.005-60.315-23.545l-46.993-0.018c-0.001,0-0.002,0-0.003,0c-1.982,0-3.885,0.788-5.287,2.19    c-1.403,1.403-2.192,3.305-2.192,5.289v40.612l-30.46-26.422c-3.12-2.706-7.845-2.37-10.551,0.749    c-2.706,3.12-2.371,7.844,0.749,10.551l42.839,37.161c2.212,1.919,5.341,2.37,8.006,1.155c2.665-1.217,4.374-3.875,4.374-6.804    v-49.518l39.588,0.015c0.06,0.007,0.107,0,0.16-0.001c18.701-0.39,36.348,6.481,49.699,19.356    c13.356,12.878,20.712,30.114,20.712,48.529v104.684c0,4.131,3.349,7.479,7.479,7.479h57.669c4.131,0,7.479-3.349,7.479-7.479    v-58.133C292.32,441.484,288.972,438.136,284.841,438.136z" fill="#ff7c1f" data-original="#000000" style=""/>
	</g>
</g>
<g xmlns="http://www.w3.org/2000/svg">
</g>
<g xmlns="http://www.w3.org/2000/svg">
</g>
<g xmlns="http://www.w3.org/2000/svg">
</g>
<g xmlns="http://www.w3.org/2000/svg">
</g>
<g xmlns="http://www.w3.org/2000/svg">
</g>
<g xmlns="http://www.w3.org/2000/svg">
</g>
<g xmlns="http://www.w3.org/2000/svg">
</g>
<g xmlns="http://www.w3.org/2000/svg">
</g>
<g xmlns="http://www.w3.org/2000/svg">
</g>
<g xmlns="http://www.w3.org/2000/svg">
</g>
<g xmlns="http://www.w3.org/2000/svg">
</g>
<g xmlns="http://www.w3.org/2000/svg">
</g>
<g xmlns="http://www.w3.org/2000/svg">
</g>
<g xmlns="http://www.w3.org/2000/svg">
</g>
<g xmlns="http://www.w3.org/2000/svg">
</g>
</g></svg>
